ffmpeg version 6.1.1-3ubuntu5 Copyright (c) 2000-2023 the FFmpeg developers
  built with gcc 13 (Ubuntu 13.2.0-23ubuntu3)
  configuration: --prefix=/usr --extra-version=3ubuntu5 --toolchain=hardened --libdir=/usr/lib/x86_64-linux-gnu --incdir=/usr/include/x86_64-linux-gnu --arch=amd64 --enable-gpl --disable-stripping --disable-omx --enable-gnutls --enable-libaom --enable-libass --enable-libbs2b --enable-libcaca --enable-libcdio --enable-libcodec2 --enable-libdav1d --enable-libflite --enable-libfontconfig --enable-libfreetype --enable-libfribidi --enable-libglslang --enable-libgme --enable-libgsm --enable-libharfbuzz --enable-libmp3lame --enable-libmysofa --enable-libopenjpeg --enable-libopenmpt --enable-libopus --enable-librubberband --enable-libshine --enable-libsnappy --enable-libsoxr --enable-libspeex --enable-libtheora --enable-libtwolame --enable-libvidstab --enable-libvorbis --enable-libvpx --enable-libwebp --enable-libx265 --enable-libxml2 --enable-libxvid --enable-libzimg --enable-openal --enable-opencl --enable-opengl --disable-sndio --enable-libvpl --disable-libmfx --enable-libdc1394 --enable-libdrm --enable-libiec61883 --enable-chromaprint --enable-frei0r --enable-ladspa --enable-libbluray --enable-libjack --enable-libpulse --enable-librabbitmq --enable-librist --enable-libsrt --enable-libssh --enable-libsvtav1 --enable-libx264 --enable-libzmq --enable-libzvbi --enable-lv2 --enable-sdl2 --enable-libplacebo --enable-librav1e --enable-pocketsphinx --enable-librsvg --enable-libjxl --enable-shared
  libavutil      58. 29.100 / 58. 29.100
  libavcodec     60. 31.102 / 60. 31.102
  libavformat    60. 16.100 / 60. 16.100
  libavdevice    60.  3.100 / 60.  3.100
  libavfilter     9. 12.100 /  9. 12.100
  libswscale      7.  5.100 /  7.  5.100
  libswresample   4. 12.100 /  4. 12.100
  libpostproc    57.  3.100 / 57.  3.100
[x11grab @ 0x5613807a15c0] Stream #0: not enough frames to estimate rate; consider increasing probesize
Input #0, x11grab, from ':1':
  Duration: N/A, start: 1781282753.727668, bitrate: 884736 kb/s
  Stream #0:0: Video: rawvideo (BGR[0] / 0x524742), bgr0, 1280x720, 884736 kb/s, 30 fps, 1000k tbr, 1000k tbn
Stream mapping:
  Stream #0:0 -> #0:0 (rawvideo (native) -> h264 (libx264))
Press [q] to stop, [?] for help
[libx264 @ 0x5613807aa300] using cpu capabilities: MMX2 SSE2Fast SSSE3 SSE4.2 AVX FMA3 BMI2 AVX2 AVX512
[libx264 @ 0x5613807aa300] profile High, level 3.1, 4:2:0, 8-bit
[libx264 @ 0x5613807aa300] 264 - core 164 r3108 31e19f9 - H.264/MPEG-4 AVC codec - Copyleft 2003-2023 - http://www.videolan.org/x264.html - options: cabac=1 ref=3 deblock=1:0:0 analyse=0x3:0x113 me=hex subme=7 psy=1 psy_rd=1.00:0.00 mixed_ref=1 me_range=16 chroma_me=1 trellis=1 8x8dct=1 cqm=0 deadzone=21,11 fast_pskip=1 chroma_qp_offset=-2 threads=6 lookahead_threads=1 sliced_threads=0 nr=0 decimate=1 interlaced=0 bluray_compat=0 constrained_intra=0 bframes=3 b_pyramid=2 b_adapt=1 b_bias=0 direct=1 weightb=1 open_gop=0 weightp=2 keyint=250 keyint_min=15 scenecut=40 intra_refresh=0 rc_lookahead=40 rc=crf mbtree=1 crf=32.0 qcomp=0.60 qpmin=0 qpmax=69 qpstep=4 ip_ratio=1.40 aq=1:1.00
Output #0, mp4, to '../../evidence/participant.mp4':
  Metadata:
    encoder         : Lavf60.16.100
  Stream #0:0: Video: h264 (avc1 / 0x31637661), yuv420p(tv, progressive), 1280x720, q=2-31, 15 fps, 15360 tbn
    Metadata:
      encoder         : Lavc60.31.102 libx264
    Side data:
      cpb: bitrate max/min/avg: 0/0/0 buffer size: 0 vbv_delay: N/A
frame=    0 fps=0.0 q=0.0 size=       0kB time=N/A bitrate=N/A speed=N/A    frame=    0 fps=0.0 q=0.0 size=       0kB time=N/A bitrate=N/A speed=N/A    frame=    0 fps=0.0 q=0.0 size=       0kB time=N/A bitrate=N/A speed=N/A    frame=    0 fps=0.0 q=0.0 size=       0kB time=N/A bitrate=N/A speed=N/A    frame=    0 fps=0.0 q=0.0 size=       0kB time=N/A bitrate=N/A speed=N/A    frame=    0 fps=0.0 q=0.0 size=       0kB time=N/A bitrate=N/A speed=N/A    frame=    0 fps=0.0 q=0.0 size=       0kB time=N/A bitrate=N/A speed=N/A    frame=    6 fps=1.6 q=36.0 size=       0kB time=00:00:00.20 bitrate=   1.9kbits/s speed=0.0546x    frame=   13 fps=3.1 q=36.0 size=       0kB time=00:00:00.66 bitrate=   0.6kbits/s speed=0.16x    frame=   20 fps=4.3 q=36.0 size=       0kB time=00:00:01.20 bitrate=   0.3kbits/s speed=0.257x    frame=   28 fps=5.4 q=36.0 size=       0kB time=00:00:01.66 bitrate=   0.2kbits/s speed=0.323x    frame=   36 fps=6.3 q=36.0 size=       0kB time=00:00:02.26 bitrate=   0.2kbits/s speed=0.398x    frame=   43 fps=6.9 q=36.0 size=       0kB time=00:00:02.73 bitrate=   0.1kbits/s speed=0.441x    frame=   52 fps=7.7 q=36.0 size=       0kB time=00:00:03.26 bitrate=   0.1kbits/s speed=0.485x    frame=   59 fps=8.1 q=36.0 size=       0kB time=00:00:03.80 bitrate=   0.1kbits/s speed=0.525x    frame=   67 fps=8.6 q=36.0 size=       0kB time=00:00:04.26 bitrate=   0.1kbits/s speed=0.549x    frame=   75 fps=9.0 q=36.0 size=       0kB time=00:00:04.80 bitrate=   0.1kbits/s speed=0.578x    frame=   82 fps=9.3 q=36.0 size=       0kB time=00:00:05.33 bitrate=   0.1kbits/s speed=0.606x    frame=   90 fps=9.7 q=36.0 size=       0kB time=00:00:05.80 bitrate=   0.1kbits/s speed=0.624x    frame=   98 fps= 10 q=36.0 size=       0kB time=00:00:06.33 bitrate=   0.1kbits/s speed=0.644x    frame=  106 fps= 10 q=36.0 size=       0kB time=00:00:06.86 bitrate=   0.1kbits/s speed=0.662x    frame=  114 fps= 10 q=36.0 size=       0kB time=00:00:07.40 bitrate=   0.1kbits/s speed=0.679x    frame=  122 fps= 11 q=36.0 size=       0kB time=00:00:07.93 bitrate=   0.0kbits/s speed=0.694x    frame=  129 fps= 11 q=36.0 size=       0kB time=00:00:08.46 bitrate=   0.0kbits/s speed=0.71x    frame=  137 fps= 11 q=36.0 size=       0kB time=00:00:08.93 bitrate=   0.0kbits/s speed=0.719x    frame=  145 fps= 11 q=36.0 size=       0kB time=00:00:09.46 bitrate=   0.0kbits/s speed=0.73x    frame=  153 fps= 11 q=36.0 size=       0kB time=00:00:10.00 bitrate=   0.0kbits/s speed=0.741x    frame=  161 fps= 11 q=36.0 size=       0kB time=00:00:10.53 bitrate=   0.0kbits/s speed=0.751x    frame=  169 fps= 12 q=36.0 size=       0kB time=00:00:11.06 bitrate=   0.0kbits/s speed=0.76x    frame=  177 fps= 12 q=36.0 size=       0kB time=00:00:11.60 bitrate=   0.0kbits/s speed=0.768x    frame=  185 fps= 12 q=36.0 size=       0kB time=00:00:12.13 bitrate=   0.0kbits/s speed=0.776x    frame=  193 fps= 12 q=36.0 size=       0kB time=00:00:12.66 bitrate=   0.0kbits/s speed=0.784x    frame=  201 fps= 12 q=36.0 size=       0kB time=00:00:13.20 bitrate=   0.0kbits/s speed=0.79x    frame=  209 fps= 12 q=36.0 size=       0kB time=00:00:13.73 bitrate=   0.0kbits/s speed=0.797x    frame=  217 fps= 12 q=36.0 size=       0kB time=00:00:14.26 bitrate=   0.0kbits/s speed=0.803x    frame=  225 fps= 12 q=36.0 size=       0kB time=00:00:14.80 bitrate=   0.0kbits/s speed=0.81x    frame=  232 fps= 12 q=36.0 size=       0kB time=00:00:15.33 bitrate=   0.0kbits/s speed=0.816x    [mp4 @ 0x5613807a97c0] Starting second pass: moving the moov atom to the beginning of the file
[out#0/mp4 @ 0x5613807a8b40] video:226kB audio:0kB subtitle:0kB other streams:0kB global headers:0kB muxing overhead: 1.848593%
frame=  287 fps= 15 q=-1.0 Lsize=     230kB time=00:00:18.93 bitrate=  99.5kbits/s speed=0.987x    
[libx264 @ 0x5613807aa300] frame I:4     Avg QP:23.80  size: 37712
[libx264 @ 0x5613807aa300] frame P:75    Avg QP:26.94  size:   733
[libx264 @ 0x5613807aa300] frame B:208   Avg QP:38.51  size:   119
[libx264 @ 0x5613807aa300] consecutive B-frames:  2.4%  1.4%  4.2% 92.0%
[libx264 @ 0x5613807aa300] mb I  I16..4: 40.1% 43.8% 16.0%
[libx264 @ 0x5613807aa300] mb P  I16..4:  1.7%  3.1%  0.5%  P16..4:  0.7%  0.1%  0.0%  0.0%  0.0%    skip:94.0%
[libx264 @ 0x5613807aa300] mb B  I16..4:  0.1%  0.2%  0.0%  B16..8:  2.1%  0.0%  0.0%  direct: 0.0%  skip:97.6%  L0:53.8% L1:46.2% BI: 0.1%
[libx264 @ 0x5613807aa300] 8x8 transform intra:52.4% inter:35.6%
[libx264 @ 0x5613807aa300] coded y,uvDC,uvAC intra: 11.0% 14.8% 9.6% inter: 0.0% 0.0% 0.0%
[libx264 @ 0x5613807aa300] i16 v,h,dc,p: 62% 37%  1%  0%
[libx264 @ 0x5613807aa300] i8 v,h,dc,ddl,ddr,vr,hd,vl,hu: 48%  5% 45%  0%  0%  0%  1%  0%  0%
[libx264 @ 0x5613807aa300] i4 v,h,dc,ddl,ddr,vr,hd,vl,hu: 34% 25% 17%  3%  4%  4%  7%  3%  4%
[libx264 @ 0x5613807aa300] i8c dc,h,v,p: 76% 17%  6%  0%
[libx264 @ 0x5613807aa300] Weighted P-Frames: Y:0.0% UV:0.0%
[libx264 @ 0x5613807aa300] ref P L0: 50.2%  9.2% 29.2% 11.4%
[libx264 @ 0x5613807aa300] ref B L0: 71.1% 25.4%  3.5%
[libx264 @ 0x5613807aa300] ref B L1: 91.6%  8.4%
[libx264 @ 0x5613807aa300] kb/s:96.43
Exiting normally, received signal 2.
